<mxfile host="app.diagrams.net" modified="2022-03-04T08:15:34.992Z" agent="5.0 (Windows NT 10.0; Win64; x64) AppleWebKit/537.36 (KHTML, like Gecko) Chrome/99.0.4844.51 Safari/537.36" etag="mBSoIZjTktRmMW0_rL2i" version="16.6.4" type="github">
  <diagram id="xLEVt1LEC7QsaYhpo4Gt" name="Page-1">
    <mxGraphModel dx="1422" dy="794" grid="1" gridSize="10" guides="1" tooltips="1" connect="1" arrows="1" fold="1" page="1" pageScale="1" pageWidth="827" pageHeight="1169" math="0" shadow="0">
      <root>
        <mxCell id="0" />
        <mxCell id="1" parent="0" />
        <mxCell id="h5ywLiuFxUIjd2iAfxQ3-1" value="Knihvovník" style="shape=umlActor;verticalLabelPosition=bottom;verticalAlign=top;html=1;outlineConnect=0;" parent="1" vertex="1">
          <mxGeometry x="130" y="330" width="30" height="60" as="geometry" />
        </mxCell>
        <mxCell id="h5ywLiuFxUIjd2iAfxQ3-4" value="Systém" style="shape=umlActor;verticalLabelPosition=bottom;verticalAlign=top;html=1;outlineConnect=0;" parent="1" vertex="1">
          <mxGeometry x="660" y="350" width="30" height="60" as="geometry" />
        </mxCell>
        <mxCell id="h5ywLiuFxUIjd2iAfxQ3-9" value="Vložit ID do aplikace" style="ellipse;whiteSpace=wrap;html=1;" parent="1" vertex="1">
          <mxGeometry x="254" y="120" width="256" height="60" as="geometry" />
        </mxCell>
        <mxCell id="h5ywLiuFxUIjd2iAfxQ3-10" value="Načíst informace pro dané ID" style="ellipse;whiteSpace=wrap;html=1;" parent="1" vertex="1">
          <mxGeometry x="247" y="210" width="286" height="60" as="geometry" />
        </mxCell>
        <mxCell id="h5ywLiuFxUIjd2iAfxQ3-11" value="Zahájit novou výpůjčku" style="ellipse;whiteSpace=wrap;html=1;" parent="1" vertex="1">
          <mxGeometry x="253" y="290" width="280" height="60" as="geometry" />
        </mxCell>
        <mxCell id="h5ywLiuFxUIjd2iAfxQ3-12" value="" style="endArrow=none;html=1;rounded=0;entryX=0;entryY=0.5;entryDx=0;entryDy=0;" parent="1" target="h5ywLiuFxUIjd2iAfxQ3-9" edge="1">
          <mxGeometry width="50" height="50" relative="1" as="geometry">
            <mxPoint x="160" y="330" as="sourcePoint" />
            <mxPoint x="210" y="280" as="targetPoint" />
          </mxGeometry>
        </mxCell>
        <mxCell id="h5ywLiuFxUIjd2iAfxQ3-14" value="Naskenovat čárový kód" style="ellipse;whiteSpace=wrap;html=1;" parent="1" vertex="1">
          <mxGeometry x="247" y="370" width="280" height="60" as="geometry" />
        </mxCell>
        <mxCell id="h5ywLiuFxUIjd2iAfxQ3-15" value="Zobrazit datum pro vrácení knih" style="ellipse;whiteSpace=wrap;html=1;" parent="1" vertex="1">
          <mxGeometry x="253" y="450" width="280" height="60" as="geometry" />
        </mxCell>
        <mxCell id="h5ywLiuFxUIjd2iAfxQ3-16" value="Potvrdit výpůjčku" style="ellipse;whiteSpace=wrap;html=1;" parent="1" vertex="1">
          <mxGeometry x="250" y="525" width="280" height="60" as="geometry" />
        </mxCell>
        <mxCell id="h5ywLiuFxUIjd2iAfxQ3-17" value="Zaznamenat výpůjčku a zobrazit hlášku" style="ellipse;whiteSpace=wrap;html=1;" parent="1" vertex="1">
          <mxGeometry x="254" y="600" width="280" height="60" as="geometry" />
        </mxCell>
        <mxCell id="h5ywLiuFxUIjd2iAfxQ3-18" value="" style="endArrow=none;html=1;rounded=0;entryX=0;entryY=0.5;entryDx=0;entryDy=0;" parent="1" target="h5ywLiuFxUIjd2iAfxQ3-11" edge="1">
          <mxGeometry width="50" height="50" relative="1" as="geometry">
            <mxPoint x="170" y="345" as="sourcePoint" />
            <mxPoint x="220" y="295" as="targetPoint" />
          </mxGeometry>
        </mxCell>
        <mxCell id="h5ywLiuFxUIjd2iAfxQ3-19" value="" style="endArrow=none;html=1;rounded=0;" parent="1" edge="1">
          <mxGeometry width="50" height="50" relative="1" as="geometry">
            <mxPoint x="170" y="370" as="sourcePoint" />
            <mxPoint x="240" y="390" as="targetPoint" />
          </mxGeometry>
        </mxCell>
        <mxCell id="h5ywLiuFxUIjd2iAfxQ3-20" value="" style="endArrow=none;html=1;rounded=0;entryX=0;entryY=0.5;entryDx=0;entryDy=0;" parent="1" target="h5ywLiuFxUIjd2iAfxQ3-16" edge="1">
          <mxGeometry width="50" height="50" relative="1" as="geometry">
            <mxPoint x="180" y="405" as="sourcePoint" />
            <mxPoint x="230" y="355" as="targetPoint" />
          </mxGeometry>
        </mxCell>
        <mxCell id="h5ywLiuFxUIjd2iAfxQ3-21" value="" style="endArrow=classic;html=1;rounded=0;entryX=1;entryY=0.5;entryDx=0;entryDy=0;" parent="1" target="h5ywLiuFxUIjd2iAfxQ3-10" edge="1">
          <mxGeometry width="50" height="50" relative="1" as="geometry">
            <mxPoint x="660" y="345" as="sourcePoint" />
            <mxPoint x="710" y="295" as="targetPoint" />
          </mxGeometry>
        </mxCell>
        <mxCell id="h5ywLiuFxUIjd2iAfxQ3-22" value="" style="endArrow=classic;html=1;rounded=0;entryX=1;entryY=0.5;entryDx=0;entryDy=0;" parent="1" target="h5ywLiuFxUIjd2iAfxQ3-15" edge="1">
          <mxGeometry width="50" height="50" relative="1" as="geometry">
            <mxPoint x="640" y="380" as="sourcePoint" />
            <mxPoint x="690" y="330" as="targetPoint" />
          </mxGeometry>
        </mxCell>
        <mxCell id="h5ywLiuFxUIjd2iAfxQ3-23" value="" style="endArrow=classic;html=1;rounded=0;entryX=1;entryY=0.5;entryDx=0;entryDy=0;" parent="1" target="h5ywLiuFxUIjd2iAfxQ3-17" edge="1">
          <mxGeometry width="50" height="50" relative="1" as="geometry">
            <mxPoint x="650" y="440" as="sourcePoint" />
            <mxPoint x="700" y="390" as="targetPoint" />
          </mxGeometry>
        </mxCell>
        <mxCell id="h5ywLiuFxUIjd2iAfxQ3-26" value="" style="rounded=0;whiteSpace=wrap;html=1;fillColor=none;" parent="1" vertex="1">
          <mxGeometry x="178.5" y="90" width="470" height="580" as="geometry" />
        </mxCell>
        <mxCell id="h5ywLiuFxUIjd2iAfxQ3-27" value="Zapůjčení knihy z knihovny" style="text;html=1;strokeColor=none;fillColor=none;align=center;verticalAlign=middle;whiteSpace=wrap;rounded=0;" parent="1" vertex="1">
          <mxGeometry x="310" y="90" width="190" height="30" as="geometry" />
        </mxCell>
      </root>
    </mxGraphModel>
  </diagram>
</mxfile>
